<?xml version="1.0" standalone="no"?>
<!DOCTYPE svg PUBLIC "-//W3C//DTD SVG 20010904//EN"
 "http://www.w3.org/TR/2001/REC-SVG-20010904/DTD/svg10.dtd">
<svg version="1.0" xmlns="http://www.w3.org/2000/svg"
 width="700.000000pt" height="700.000000pt" viewBox="0 0 700.000000 700.000000"
 preserveAspectRatio="xMidYMid meet">
<metadata>
Created by potrace 1.14, written by Peter Selinger 2001-2017
</metadata>
<g transform="translate(0.000000,700.000000) scale(0.100000,-0.100000)"
fill="#000000" stroke="none">
<path d="M3278 6995 c-1 -1 -41 -5 -88 -9 -47 -4 -96 -8 -110 -10 -14 -2 -46
-7 -71 -10 -258 -36 -556 -116 -804 -216 -337 -136 -730 -374 -990 -600 -649
-564 -1078 -1355 -1185 -2183 -6 -45 -13 -98 -16 -117 -12 -85 -11 -561 2
-695 87 -877 499 -1684 1164 -2277 77 -68 199 -166 260 -208 19 -13 37 -27 40
-30 13 -14 99 -70 108 -70 6 0 12 -4 14 -8 6 -16 232 -144 383 -217 374 -182
792 -297 1205 -333 167 -14 719 -5 750 12 3 2 28 6 57 10 164 19 406 77 613
146 918 304 1686 998 2077 1875 63 141 71 162 106 260 62 176 90 272 122 418
13 57 45 237 50 282 4 28 8 61 10 75 9 57 15 131 20 237 l5 113 -162 82 c-143
71 -170 81 -218 82 -51 1 -146 -10 -159 -19 -3 -1 -22 -6 -41 -9 -19 -3 -78
-14 -130 -25 -104 -21 -156 -20 -213 5 -37 17 -37 17 -18 38 53 59 67 137 41
240 -22 89 -32 113 -67 152 -45 51 -107 77 -183 76 l-65 0 -100 225 c-129 292
-136 299 -320 346 -157 41 -168 45 -208 78 -61 51 -80 98 -85 214 l-4 100 47
39 c54 45 83 102 89 172 5 66 -14 114 -79 200 l-54 72 -3 369 -3 368 -25 46
c-14 26 -64 90 -113 142 -48 52 -97 105 -108 118 -11 13 -60 67 -108 119 -49
52 -101 110 -116 128 -16 19 -40 38 -54 44 -68 26 -384 101 -481 113 -19 3
-46 7 -60 10 -13 2 -52 7 -86 11 -33 3 -74 8 -90 10 -32 5 -540 14 -546 9z"/>
<path d="M5613 6620 c-57 -34 -63 -59 -63 -255 0 -139 3 -182 15 -206 19 -35
70 -69 104 -69 37 0 429 159 453 184 32 33 36 54 33 172 -3 184 -12 190 -302
192 -190 2 -211 0 -240 -18z"/>
<path d="M6075 5891 c-54 -33 -241 -234 -253 -271 -6 -19 -21 -102 -32 -185
-12 -82 -24 -166 -26 -185 -3 -19 -7 -46 -9 -60 -23 -136 -28 -219 -15 -263
15 -55 75 -127 124 -151 46 -21 267 -67 331 -68 105 -1 174 53 270 212 47 78
50 87 49 149 -1 46 -9 86 -26 131 -15 36 -74 193 -133 349 -58 156 -110 293
-116 303 -15 28 -69 58 -104 58 -16 0 -43 -8 -60 -19z"/>
<path d="M6695 4483 c-19 -5 -159 -53 -197 -68 -20 -8 -115 -187 -122 -231 -6
-34 38 -137 72 -167 38 -34 87 -38 140 -11 85 44 226 148 240 177 18 38 18
197 0 233 -24 50 -82 79 -133 67z"/>
</g>
</svg>
